HIERARCHY
ROOT Hips
{
    OFFSET 0.0 0.0 0.0
    CHANNELS 6 Xposition Yposition Zposition Zrotation Xrotation Yrotation
    JOINT LeftHipJoint
    {
        OFFSET 0.1 0.0 0.0
        CHANNELS 3 Zrotation Xrotation Yrotation
        JOINT LeftUpLeg
        {
            OFFSET 124.78056233314899 0.0 0.0
            CHANNELS 3 Zrotation Xrotation Yrotation
            JOINT LeftLeg
            {
                OFFSET 0.0 0.0 -416.70714126515816
                CHANNELS 3 Zrotation Xrotation Yrotation
                JOINT LeftFoot
                {
                    OFFSET 0.0 0.0 -399.76017868809663
                    CHANNELS 3 Zrotation Xrotation Yrotation
                    End Site
                    {
                        OFFSET 0.0 -0.1 0.0
                    }
                }
            }
        }
    }
    JOINT LowerBack
    {
        OFFSET 0.0 0.0 0.1
        CHANNELS 3 Zrotation Xrotation Yrotation
        JOINT Spine
        {
            OFFSET 0.0 0.0 222.6822927033285
            CHANNELS 3 Zrotation Xrotation Yrotation
            JOINT Spine1
            {
                OFFSET 0.0 0.0 253.5136955838306
                CHANNELS 3 Zrotation Xrotation Yrotation
                JOINT LeftShoulder
                {
                    OFFSET 0.1 0.0 0.0
                    CHANNELS 3 Zrotation Xrotation Yrotation
                    JOINT LeftArm
                    {
                        OFFSET 150.10451770243162 0.0 0.0
                        CHANNELS 3 Zrotation Xrotation Yrotation
                        JOINT LeftForeArm
                        {
                            OFFSET 260.945874853942 0.0 0.0
                            CHANNELS 3 Zrotation Xrotation Yrotation
                            JOINT LeftHand
                            {
                                OFFSET 250.0741360799703 0.0 0.0
                                CHANNELS 3 Zrotation Xrotation Yrotation
                                End Site
                                {
                                    OFFSET 0.1 0.0 0.0
                                }
                            }
                        }
                    }
                }
                JOINT Neck
                {
                    OFFSET 0.0 0.0 0.1
                    CHANNELS 3 Zrotation Xrotation Yrotation
                    JOINT Neck1
                    {
                        OFFSET 0.0 0.0 110.78639035500615
                        CHANNELS 3 Zrotation Xrotation Yrotation
                        End Site
                        {
                            OFFSET 0.0 0.0 120.06080295944508
                        }
                    }
                }
                JOINT RightShoulder
                {
                    OFFSET -0.1 0.0 0.0
                    CHANNELS 3 Zrotation Xrotation Yrotation
                    JOINT RightArm
                    {
                        OFFSET -150.10451770243162 0.0 0.0
                        CHANNELS 3 Zrotation Xrotation Yrotation
                        JOINT RightForeArm
                        {
                            OFFSET -260.945874853942 0.0 0.0
                            CHANNELS 3 Zrotation Xrotation Yrotation
                            JOINT RightHand
                            {
                                OFFSET -250.0741360799703 0.0 0.0
                                CHANNELS 3 Zrotation Xrotation Yrotation
                                End Site
                                {
                                    OFFSET -0.1 0.0 0.0
                                }
                            }
                        }
                    }
                }
            }
        }
    }
    JOINT RightHipJoint
    {
        OFFSET -0.1 0.0 0.0
        CHANNELS 3 Zrotation Xrotation Yrotation
        JOINT RightUpLeg
        {
            OFFSET -124.78056233314899 0.0 0.0
            CHANNELS 3 Zrotation Xrotation Yrotation
            JOINT RightLeg
            {
                OFFSET 0.0 0.0 -416.70714126515816
                CHANNELS 3 Zrotation Xrotation Yrotation
                JOINT RightFoot
                {
                    OFFSET 0.0 0.0 -399.76017868809663
                    CHANNELS 3 Zrotation Xrotation Yrotation
                    End Site
                    {
                        OFFSET 0.0 -0.1 0.0
                    }
                }
            }
        }
    }
}
MOTION
Frames: 8
Frame Time: 0.03333333333333333
0.0 0.0 815.7067510948306 31.624563233704226 -16.81517993961396 3.981768028316551 0.0 0.0 -7.951386703658792e-16 -0.3866637181586768 5.004764019813937 1.1428020944693724 -1.8719875189252109 29.34462682520701 -5.243659186675606 0.0 0.0 7.951386703658792e-16 0.0 0.0 -7.951386703658792e-16 -0.7111532290937638 9.06164395986841 -0.17274256643777278 -3.624111999887184 -2.1981094406843923e-15 3.2822689630123383e-16 0.0 0.0 0.0 -88.42709520868651 16.283397566521373 58.32647924659785 -108.19892837993056 -1.030545716344546e-14 7.460053750534413e-15 0.0 0.0 0.0 0.0 0.0 0.0 -9.773117098253328 -16.033288189022798 -6.139814597399972 0.0 0.0 0.0 34.33812112034407 -38.04134428104409 -62.28881273137356 143.25354984031628 3.5142676150884844e-15 -5.53557742941991e-15 0.0 0.0 0.0 0.0 0.0 -7.951386703658792e-16 -0.85265342535891 10.77969362915474 -3.991313370289733 -2.943461665336379 18.92038254179722 6.262026281430814 -5.517382872562698e-33 -3.9756933518293955e-16 -1.5902773407317582e-15
0.0 0.0 815.7067510948306 31.624964452239656 -16.812555855870922 4.025666047642369 0.0 0.0 0.0 -0.3781992959553422 4.93639297204216 1.0550985107403885 -1.9025790303533223 29.36567063202991 -5.168445340260051 0.0 0.0 0.0 0.0 0.0 0.0 -0.704528837966093 9.050533117624132 -0.22253069075878906 -3.6110678409561903 2.4835746919459527e-16 7.828959303321974e-18 0.0 0.0 0.0 -88.40359122814878 16.27353112755938 58.35955396927874 -108.06900577988789 -8.884362790293934e-15 -1.4126296275657373e-15 0.0 0.0 0.0 0.0 0.0 0.0 -9.760156996649691 -16.00588405135916 -6.151902262311282 0.0 0.0 0.0 34.41386547693698 -38.051905206802985 -62.283019963873464 143.2222678467062 4.784125826675916e-15 8.293837369737796e-15 0.0 3.180554681463516e-15 0.0 0.0 0.0 0.0 -0.8471125903788211 10.796279738112855 -4.035666541532506 -2.9497611332551137 18.940872929163366 6.199051937408609 0.0 0.0 -1.987846675914698e-15
0.0 0.0 815.7067510948306 31.64030250042685 -16.853850243177934 4.076124711482616 0.0 0.0 0.0 -0.37758856693923654 4.995084251029691 0.9487748677285284 -1.9258377127117623 29.320373688626557 -5.015237799862699 0.0 0.0 -7.951386703658792e-16 0.0 0.0 0.0 -0.6972434110401436 9.078287463035215 -0.3065440069094288 -3.6076692985998084 6.954015635719055e-16 2.1900461924937397e-17 0.0 0.0 -3.975693351829396e-16 -88.5154710002657 16.299717443094917 58.34177222202146 -107.87812477273124 3.74443750724384e-15 5.142266045379557e-15 0.0 0.0 0.0 0.0 0.0 -3.975693351829396e-16 -9.723470060846532 -16.054411005533094 -6.120293141327521 0.0 0.0 -3.975693351829396e-16 34.415392614545205 -38.081619372874876 -62.35320839917781 143.2182934412243 -6.036224543449591e-15 -2.0069144446574574e-15 0.0 0.0 0.0 0.0 0.0 0.0 -0.8410796621442413 10.86333197188556 -4.08231004218248 -2.942117281214107 18.921279496553087 6.10757829454369 0.0 0.0 -1.987846675914698e-15
0.0 0.0 815.7067510948306 31.644016369982165 -16.878623274996773 4.135815605306871 0.0 0.0 0.0 -0.3793112654047413 5.02667548960363 0.7832455858650756 -2.023252307299026 29.4219576811032 -4.8156293191370265 0.0 0.0 0.0 0.0 0.0 0.0 -0.6937542915662812 9.049747362982862 -0.3224044152255433 -3.6239978560888084 2.112564399172304e-16 -3.9108494849681113e-16 0.0 0.0 0.0 -88.4975403885646 16.311112741057418 58.328519776605255 -107.90211924375848 0.0 -0.0 0.0 0.0 -1.5902773407317584e-15 0.0 0.0 0.0 -9.706048773541431 -15.9472606496913 -6.086905710226659 0.0 0.0 0.0 34.236035644093086 -38.118815577891986 -62.449681670531895 143.2663494751404 -1.744866119445787e-15 1.28257748724856e-14 0.0 0.0 0.0 0.0 0.0 0.0 -0.8473347016399966 10.961851689664734 -4.134659462210618 -2.953874632636136 18.895619386386244 6.0328375946566055 0.0 0.0 3.9756933518293955e-16
0.0 0.0 815.7067510948306 31.671752645366073 -16.865137785888457 4.194454899230845 0.0 0.0 0.0 -0.37042795917121196 4.946269523226102 0.6599483879833504 -2.089000888193387 29.587004907401415 -4.656485750160117 0.0 0.0 7.951386703658792e-16 0.0 0.0 0.0 -0.6829153035110718 8.974480991474694 -0.34216720149040153 -3.650715214687934 -2.3345346086280976e-15 -7.43999442624331e-17 0.0 0.0 0.0 -88.51212957189207 16.351428983072967 58.28307148918741 -107.9108017355014 0.0 -0.0 0.0 0.0 -1.5902773407317584e-15 0.0 0.0 0.0 -9.691322985416237 -15.874391914908982 -6.053860984934967 0.0 0.0 0.0 34.18336634347062 -38.08660336444686 -62.4574547955273 143.2789129912037 4.033564398508364e-15 8.041006336107554e-15 0.0 0.0 0.0 0.0 0.0 0.0 -0.845409812689867 11.015189787121441 -4.204982580499542 -2.9826266690654837 18.984221628320178 5.975761480051704 0.0 0.0 -7.951386703658792e-16
0.0 0.0 815.7067510948306 31.689118543917424 -16.86087900138178 4.217069158921035 0.0 0.0 0.0 -0.3663250407169292 4.881036264012179 0.5873651718608193 -2.1522041397605487 29.772585390614662 -4.582877770617542 0.0 0.0 0.0 0.0 0.0 0.0 -0.6819566016965951 8.941093290418022 -0.332742513476646 -3.6586589934461715 3.3279462307122584e-15 1.0629019697724113e-16 0.0 0.0 0.0 -88.50255869840684 16.33227143393722 58.29224394907003 -107.94860044242898 1.4030410147341925e-14 -2.3379804817308974e-15 0.0 0.0 0.0 0.0 0.0 0.0 -9.706885241583766 -15.87732285341547 -6.029990318346103 0.0 0.0 0.0 34.04470291706578 -38.06072605984181 -62.56847162203231 143.33421012248613 1.7730998433614874e-15 7.288756197072988e-15 0.0 0.0 -6.3611093629270335e-15 0.0 0.0 0.0 -0.8502171488216316 11.05054641699617 -4.291072071127577 -3.028215294229386 19.050593549396485 5.994845866157626 0.0 0.0 -3.975693351829396e-16
0.0 0.0 815.7067510948306 31.68107047504935 -16.839408634584668 4.248233618341093 0.0 0.0 0.0 -0.3610337974416466 4.84093155773915 0.5248146914940651 -2.174439391630073 29.78928802555655 -4.532386098921799 0.0 0.0 0.0 0.0 0.0 0.0 -0.6760306821325542 8.917768987925333 -0.37126432554457883 -3.663577521016032 -5.717953277145803e-16 7.772582568491752e-16 0.0 0.0 0.0 -88.50640707850079 16.322395588240855 58.34651001990475 -107.93584653826258 -5.144151531358314e-15 3.741846783279867e-15 0.0 0.0 0.0 0.0 0.0 0.0 -9.709570083330208 -15.943620846211008 -6.029792167178985 0.0 0.0 0.0 33.915157270008805 -38.12476356554346 -62.657777675408376 143.34396711611916 -9.548320647335638e-15 3.5380553491860042e-15 0.0 0.0 0.0 0.0 0.0 0.0 -0.84033290481614 10.989413615422045 -4.334544179525046 -3.05366119188597 19.165749749603478 6.029096301357558 -2.758691436281349e-33 -3.975693351829396e-16 -7.951386703658792e-16
0.0 0.0 815.7067510948306 31.64317895530103 -16.813557713884013 4.282828513193993 0.0 0.0 0.0 -0.3559696603438994 4.810050616539117 0.4946324198394944 -2.1862835773278766 29.933361795604505 -4.647292837466301 0.0 0.0 0.0 0.0 0.0 0.0 -0.6651579425782237 8.840307214224916 -0.4122233450286002 -3.6624510236699557 -1.254474184833746e-15 3.5766468035919837e-16 0.0 0.0 0.0 -88.4130117442769 16.32358499921437 58.402566492401505 -107.94739821825213 0.0 -0.0 0.0 0.0 0.0 0.0 0.0 0.0 -9.687524282227658 -15.950001831595433 -6.024992973001853 0.0 0.0 0.0 33.74113883742717 -38.13592356905052 -62.78176810277976 143.31569860542686 8.302151386094939e-15 2.75245135848379e-15 0.0 0.0 0.0 0.0 0.0 0.0 -0.836176719245716 11.013925546240396 -4.427828742745567 -3.0960970776397483 19.283714726787476 6.100603120794916 0.0 0.0 3.975693351829396e-16
